<svg xmlns="http://www.w3.org/2000/svg" width="800" height="300" viewBox="0 0 800 300"><rect width="800" height="300" rx="8" fill="#0d1117"/><text x="400.0" y="30" text-anchor="middle" fill="#e6edf3" font-size="16" font-weight="600">Latency Comparison (avg + p95 whisker)</text><line x1="80" y1="240.0" x2="770" y2="240.0" stroke="#30363d" stroke-width="1"/><line x1="80" y1="195.0" x2="770" y2="195.0" stroke="#30363d" stroke-width="1"/><line x1="80" y1="150.0" x2="770" y2="150.0" stroke="#30363d" stroke-width="1"/><line x1="80" y1="105.0" x2="770" y2="105.0" stroke="#30363d" stroke-width="1"/><line x1="80" y1="60.0" x2="770" y2="60.0" stroke="#30363d" stroke-width="1"/><line x1="296.66666666666663" y1="-297.99020987033134" x2="296.66666666666663" y2="90.0" stroke="#58a6ff" stroke-width="2" opacity="0.5"/><line x1="288.66666666666663" y1="-297.99020987033134" x2="304.66666666666663" y2="-297.99020987033134" stroke="#58a6ff" stroke-width="2" opacity="0.5"/><rect x="256.66666666666663" y="90.0" width="80" height="150.0" rx="3" fill="#58a6ff" opacity="0.85"><animate attributeName="height" from="0" to="150.0" dur="0.6s" fill="freeze"/><animate attributeName="y" from="240" to="90.0" dur="0.6s" fill="freeze"/></rect><text x="296.66666666666663" y="82.0" text-anchor="middle" fill="#e6edf3" font-size="12" font-weight="600">317ms</text><line x1="553.3333333333333" y1="-227.62520386754937" x2="553.3333333333333" y2="101.64346205120154" stroke="#3fb950" stroke-width="2" opacity="0.5"/><line x1="545.3333333333333" y1="-227.62520386754937" x2="561.3333333333333" y2="-227.62520386754937" stroke="#3fb950" stroke-width="2" opacity="0.5"/><rect x="513.3333333333333" y="101.64346205120154" width="80" height="138.35653794879846" rx="3" fill="#3fb950" opacity="0.85"><animate attributeName="height" from="0" to="138.35653794879846" dur="0.6s" fill="freeze"/><animate attributeName="y" from="240" to="101.64346205120154" dur="0.6s" fill="freeze"/></rect><text x="553.3333333333333" y="93.64346205120154" text-anchor="middle" fill="#e6edf3" font-size="12" font-weight="600">293ms</text><text x="70" y="244.0" text-anchor="end" fill="#8b949e" font-size="11">0ms</text><text x="70" y="199.0" text-anchor="end" fill="#8b949e" font-size="11">95ms</text><text x="70" y="154.0" text-anchor="end" fill="#8b949e" font-size="11">190ms</text><text x="70" y="109.0" text-anchor="end" fill="#8b949e" font-size="11">285ms</text><text x="70" y="64.0" text-anchor="end" fill="#8b949e" font-size="11">381ms</text><text x="296.66666666666663" y="260" text-anchor="middle" fill="#e6edf3" font-size="12">qwen2.5:3b</text><text x="553.3333333333333" y="260" text-anchor="middle" fill="#e6edf3" font-size="12">qwen2.5:0.5b</text></svg>